<svg width="32" height="32" viewBox="0 0 32 32" fill="none" xmlns="http://www.w3.org/2000/svg">
<path d="M21.6722 18.8678L21.6722 18.8678C22.1979 19.2615 22.3049 20.0072 21.91 20.5317L21.9098 20.5319C21.6768 20.8457 21.3203 21.0087 20.9572 21.0087C20.7087 21.0087 20.459 20.9315 20.2449 20.7709L15.2875 17.0528L15.2874 17.0527C14.9878 16.8292 14.8117 16.476 14.8117 16.1013V8.66516C14.8117 8.0074 15.3433 7.47578 16.0011 7.47578C16.6589 7.47578 17.1905 8.0074 17.1905 8.66516V15.4815V15.5065L17.2105 15.5215L21.6722 18.8678Z" fill="#75B6F2" stroke="#F8FAFD" stroke-width="0.1"/>
<path d="M0.05 16C0.05 7.20468 7.20468 0.05 16 0.05C24.7953 0.05 31.95 7.20468 31.95 16C31.95 24.7953 24.7953 31.95 16 31.95C7.20468 31.95 0.05 24.7953 0.05 16ZM2.42869 16C2.42869 23.4823 8.5177 29.5713 16 29.5713C23.4823 29.5713 29.5713 23.4823 29.5713 16C29.5713 8.5177 23.4836 2.42869 16 2.42869C8.5177 2.42869 2.42869 8.5177 2.42869 16Z" fill="#75B6F2" stroke="#F8FAFD" stroke-width="0.1"/>
</svg>
