<svg width="51" height="19" viewBox="0 0 51 19" fill="none" xmlns="http://www.w3.org/2000/svg">
<path d="M6.44034 18.2386C5.37216 18.2386 4.41193 18.0341 3.55966 17.625C2.71307 17.2102 2.03693 16.642 1.53125 15.9205C1.02557 15.1989 0.755682 14.375 0.721591 13.4489H3.27841C3.34091 14.1989 3.6733 14.8153 4.27557 15.2983C4.87784 15.7812 5.59943 16.0227 6.44034 16.0227C7.1108 16.0227 7.70455 15.8693 8.22159 15.5625C8.74432 15.25 9.15341 14.821 9.44886 14.2756C9.75 13.7301 9.90057 13.108 9.90057 12.4091C9.90057 11.6989 9.74716 11.0653 9.44034 10.5085C9.13352 9.9517 8.71023 9.5142 8.17045 9.19602C7.63636 8.87784 7.02273 8.71591 6.32955 8.71023C5.80114 8.71023 5.26989 8.80114 4.7358 8.98295C4.2017 9.16477 3.76989 9.40341 3.44034 9.69886L1.02841 9.34091L2.00852 0.545454H11.6051V2.80398H4.19886L3.64489 7.6875H3.74716C4.08807 7.35795 4.53977 7.08239 5.10227 6.8608C5.67045 6.6392 6.27841 6.52841 6.92614 6.52841C7.98864 6.52841 8.93466 6.78125 9.7642 7.28693C10.5994 7.79261 11.2557 8.48295 11.733 9.35795C12.2159 10.2273 12.4545 11.2273 12.4489 12.358C12.4545 13.4886 12.1989 14.4972 11.6818 15.3835C11.1705 16.2699 10.4602 16.9687 9.55114 17.4801C8.64773 17.9858 7.6108 18.2386 6.44034 18.2386ZM16.642 18.1619C16.1761 18.1619 15.7756 17.9972 15.4403 17.6676C15.1051 17.3324 14.9375 16.929 14.9375 16.4574C14.9375 15.9915 15.1051 15.5937 15.4403 15.2642C15.7756 14.929 16.1761 14.7614 16.642 14.7614C17.108 14.7614 17.5085 14.929 17.8438 15.2642C18.179 15.5937 18.3466 15.9915 18.3466 16.4574C18.3466 16.7699 18.267 17.0568 18.108 17.3182C17.9545 17.5739 17.75 17.7784 17.4943 17.9318C17.2386 18.0852 16.9545 18.1619 16.642 18.1619ZM27.206 18.2386C26.1378 18.2386 25.1776 18.0341 24.3253 17.625C23.4787 17.2102 22.8026 16.642 22.2969 15.9205C21.7912 15.1989 21.5213 14.375 21.4872 13.4489H24.044C24.1065 14.1989 24.4389 14.8153 25.0412 15.2983C25.6435 15.7812 26.3651 16.0227 27.206 16.0227C27.8764 16.0227 28.4702 15.8693 28.9872 15.5625C29.5099 15.25 29.919 14.821 30.2145 14.2756C30.5156 13.7301 30.6662 13.108 30.6662 12.4091C30.6662 11.6989 30.5128 11.0653 30.206 10.5085C29.8991 9.9517 29.4759 9.5142 28.9361 9.19602C28.402 8.87784 27.7884 8.71591 27.0952 8.71023C26.5668 8.71023 26.0355 8.80114 25.5014 8.98295C24.9673 9.16477 24.5355 9.40341 24.206 9.69886L21.794 9.34091L22.7741 0.545454H32.3707V2.80398H24.9645L24.4105 7.6875H24.5128C24.8537 7.35795 25.3054 7.08239 25.8679 6.8608C26.4361 6.6392 27.044 6.52841 27.6918 6.52841C28.7543 6.52841 29.7003 6.78125 30.5298 7.28693C31.3651 7.79261 32.0213 8.48295 32.4986 9.35795C32.9815 10.2273 33.2202 11.2273 33.2145 12.358C33.2202 13.4886 32.9645 14.4972 32.4474 15.3835C31.9361 16.2699 31.2259 16.9687 30.3168 17.4801C29.4134 17.9858 28.3764 18.2386 27.206 18.2386ZM46.9212 18L41.0575 10.1761H39.1996V18H36.5661V0.545454H39.1996V7.91761H40.0604L46.657 0.545454H49.87L42.8899 8.3608L50.1342 18H46.9212Z" fill="#75B6F2"/>
</svg>
