<svg width="30" height="30" viewBox="0 0 30 30" fill="none" xmlns="http://www.w3.org/2000/svg">
<path d="M27.0882 24.5518C27.8018 23.8116 27.8077 23.054 27.1057 22.3547L27.0882 24.5518ZM27.0882 24.5518C26.8425 24.814 26.5851 25.0646 26.3101 25.3269L27.0882 24.5518ZM6.54098 19.7132L6.54118 19.7135C9.33694 23.0429 12.703 25.6648 16.5449 27.52L16.5459 27.5204C18.0055 28.2095 19.9712 29.0341 22.1662 29.1756L22.1688 29.1757L22.186 29.1765C22.314 29.182 22.4402 29.1875 22.572 29.1875C24.061 29.1875 25.2641 28.6735 26.2419 27.6169C26.2471 27.6117 26.2638 27.5951 26.2779 27.5731C26.5878 27.2016 26.9374 26.8638 27.3096 26.5041C27.3367 26.4779 27.364 26.4516 27.3913 26.4251C27.6667 26.1624 27.9488 25.8873 28.2195 25.6059C28.8611 24.9397 29.189 24.1754 29.1875 23.4085C29.186 22.6414 28.8547 21.8867 28.206 21.2404L24.6919 17.7396C24.6916 17.7393 24.6913 17.7391 24.691 17.7388C24.0746 17.101 23.3301 16.7574 22.5428 16.7574C21.7553 16.7574 21.0054 17.1011 20.372 17.7321L18.3448 19.7516C18.1753 19.6578 18.0039 19.5725 17.8439 19.4928L17.8425 19.4921C17.6084 19.3754 17.3972 19.2673 17.2103 19.1487L17.2101 19.1487C15.3163 17.9507 13.5947 16.387 11.9465 14.3737C11.14 13.3568 10.5942 12.5023 10.2098 11.6404C10.7377 11.1607 11.2331 10.6612 11.7103 10.1747L11.7107 10.1743C11.8853 9.99445 12.066 9.81452 12.2474 9.63373C12.8973 8.98627 13.2553 8.22747 13.2553 7.44716C13.2553 6.66734 12.9036 5.90832 12.2471 5.26028C12.2471 5.26025 12.2471 5.26022 12.247 5.26019L10.5042 3.52391C10.3056 3.32611 10.118 3.13374 9.92465 2.93542L9.90878 2.91914C9.52291 2.52308 9.11777 2.11356 8.71779 1.74432C8.09539 1.13685 7.35769 0.8125 6.57256 0.8125C5.79253 0.8125 5.04914 1.13742 4.40391 1.75017L4.40389 1.75014L4.40177 1.75225L2.21391 3.93185C1.39756 4.74512 0.934047 5.73429 0.83794 6.87722L0.837898 6.87775C0.724875 8.29409 0.987411 9.79312 1.65846 11.5934C2.68805 14.3774 4.24055 16.9597 6.54098 19.7132ZM27.0175 22.4432C27.0175 22.4433 27.0175 22.4433 27.0176 22.4433C27.3527 22.7773 27.5054 23.1111 27.5028 23.4369C27.5002 23.7639 27.3412 24.1093 26.9982 24.465L26.9969 24.4663C26.7537 24.7259 26.4984 24.9746 26.2238 25.2364L26.2232 25.2371C26.2005 25.259 26.1777 25.281 26.1549 25.3031C25.7678 25.6775 25.3626 26.0693 24.9938 26.5087C24.3465 27.2029 23.5795 27.5272 22.5779 27.5272C22.4827 27.5272 22.3809 27.5216 22.2812 27.5157C20.3877 27.3949 18.6218 26.6581 17.285 26.0242C13.6627 24.2778 10.4829 21.8005 7.84415 18.6553C5.6694 16.0473 4.20928 13.6234 3.24412 11.0285L3.24397 11.0281C2.6455 9.43624 2.42291 8.16759 2.51443 7.02069C2.58211 6.27482 2.86778 5.65558 3.40823 5.11718L5.58361 2.95001C5.90575 2.64045 6.2503 2.49031 6.57256 2.49031C6.88756 2.49031 7.21996 2.63919 7.53655 2.96012L7.53645 2.96022L7.54081 2.96424C7.87829 3.27535 8.19826 3.59947 8.53737 3.94298C8.58929 3.99557 8.64167 4.04863 8.69462 4.10215C8.79435 4.20442 8.89548 4.30663 8.99697 4.40919L8.99898 4.41123C9.10001 4.51332 9.2014 4.61579 9.30275 4.71963L9.30274 4.71964L9.30399 4.72089L11.0473 6.45757C11.3968 6.8058 11.5604 7.14299 11.5604 7.45882C11.5604 7.77465 11.3968 8.11183 11.0473 8.46006C10.9562 8.5508 10.8652 8.64293 10.7746 8.73465L10.7745 8.73468L10.7745 8.73474C10.6838 8.82657 10.5935 8.91798 10.5032 9.00787L10.5027 9.00835C10.4618 9.04955 10.4211 9.09056 10.3806 9.13138C9.88149 9.63441 9.41012 10.1094 8.89418 10.5645L8.89402 10.5644L8.88864 10.5697L8.87402 10.5843L8.85939 10.5989C8.5988 10.8585 8.48216 11.1196 8.45136 11.3693C8.42095 11.6157 8.47576 11.8391 8.53658 12.0209C8.54082 12.0335 8.54503 12.044 8.5479 12.0511C8.55088 12.0585 8.55252 12.0627 8.55413 12.0675L8.55381 12.0676L8.55733 12.076C9.01328 13.1673 9.64601 14.2029 10.6283 15.4335L10.629 15.4344C12.3912 17.5995 14.2494 19.2815 16.2978 20.5775C16.5132 20.7172 16.7416 20.8323 16.9549 20.9397C16.9975 20.9611 17.0395 20.9823 17.0807 21.0033L17.0817 21.0038C17.3159 21.1204 17.527 21.2286 17.714 21.3472L17.7137 21.3477L17.7252 21.3535C17.7334 21.3575 17.7408 21.3617 17.7513 21.3677L17.752 21.3681C17.7618 21.3737 17.7743 21.3808 17.7889 21.3881C17.9974 21.495 18.2038 21.5472 18.4128 21.5472C18.9348 21.5472 19.2708 21.216 19.3726 21.1145L21.5605 18.9349C21.8846 18.612 22.2233 18.4527 22.5428 18.4527C22.9359 18.4527 23.2676 18.6965 23.4868 18.9316L23.4867 18.9316L23.4901 18.935L27.0175 22.4432Z" fill="#75B6F2" stroke="#75B6F2" stroke-width="0.25"/>
</svg>
