<svg width="36" height="26" viewBox="0 0 36 26" fill="none" xmlns="http://www.w3.org/2000/svg">
<path d="M33.2482 22.3582L33.2519 22.4042H33.298H34.6296C35.0078 22.4042 35.3373 22.5259 35.5719 22.7503C35.8062 22.9744 35.95 23.3048 35.95 23.7304C35.95 24.1561 35.8061 24.4899 35.5717 24.7173C35.3369 24.9449 35.0074 25.0697 34.6296 25.0697H1.39901C1.01932 25.0697 0.682233 24.9604 0.440808 24.7487C0.200305 24.5379 0.05 24.2215 0.05 23.7968C0.05 22.9498 0.648645 22.4042 1.39901 22.4042H2.73063H2.77677L2.78047 22.3582C3.44469 14.0894 9.29941 7.53831 16.6113 6.79495L16.6562 6.79038V6.74521V3.82166V3.77166H16.6062H15.339C14.5897 3.77166 13.9691 3.1824 13.9691 2.33425C13.9691 1.4837 14.592 0.842972 15.339 0.842972L20.6897 0.842971C21.438 0.842971 22.0918 1.48518 22.0918 2.33425C22.0918 3.18094 21.4404 3.77166 20.6897 3.77166H19.4224H19.3724V3.82166V6.74521V6.79038L19.4173 6.79495C26.7574 7.54108 32.5864 14.1211 33.2482 22.3582ZM5.51133 22.3492L5.50585 22.4042H5.56108H30.4676H30.5228L30.5173 22.3492C29.8139 15.3 24.4811 9.41127 18.0143 9.41127C11.5475 9.41127 6.21473 15.3 5.51133 22.3492Z" fill="#75B6F2" stroke="white" stroke-width="0.1"/>
</svg>
